<svg xmlns="http://www.w3.org/2000/svg" viewBox="0 0 280.72 35.43"><title>Asset 1</title><g id="Layer_2" data-name="Layer 2"><g id="Layer_1-2" data-name="Layer 1"><path d="M24.1,34.56H0V1H6.86V28.47H24.1Z"/><path d="M28.84,12.76A24.13,24.13,0,0,1,40.06,9.94c6.6,0,9.07,3.7,9.07,8.26V34.56H43.4a8,8,0,0,1-.65-2.4,8.89,8.89,0,0,1-7,3.22C30.05,35.38,27,31.3,27,27c0-4.08,2.46-8.26,8.79-8.26a20.58,20.58,0,0,1,7,1.29v-.48c0-3.68-1.7-4.62-4.08-4.62a14.24,14.24,0,0,0-7.48,2.28ZM42.73,24.1a14.53,14.53,0,0,0-5.55-1.28,3.41,3.41,0,0,0-3.61,3.68c0,2.67,1.33,3.9,3.61,3.9a8.37,8.37,0,0,0,5.55-2.49Z"/><path d="M77.85,34.56H72a10.9,10.9,0,0,1-.63-3.22,12.37,12.37,0,0,1-8.68,3.84c-5.52,0-8.21-3.74-8.21-8.74V10.56h6.57V24.47c0,6.7,5.65,6,10.23,1.88V10.56h6.57Z"/><path d="M89.49,10.56A10.32,10.32,0,0,1,90,13.18c2.69-2.61,6-4.26,9.31-2l-1.79,5.39c-2.19-1.52-4.88-1.23-7.33,1.42V34.56H83.64v-24Z"/><path d="M107.27,25.5c.51,2.83,2.11,4.85,5.1,4.85a14.11,14.11,0,0,0,6.24-1.89l2.25,4.37a15.56,15.56,0,0,1-8.26,2.59c-8.54,0-12-6.34-12-12.72,0-7.87,4.85-12.67,11.58-12.67,8.78,0,11.43,6.14,11.43,15.47Zm10.3-4.25c-.17-3.56-1.28-6.1-5.29-6.1-3.62,0-5,2.6-5.17,6.1Z"/><path d="M133.65,10.56a10.91,10.91,0,0,1,.63,3.22A12.37,12.37,0,0,1,143,9.94c5.52,0,8.21,3.74,8.21,8.74V34.56H144.6V20.66c0-6.7-5.65-6-10.23-1.88V34.56H127.8v-24Z"/><path d="M200.23,15.6V28.42c-3.31,4.56-7.93,6.87-14.12,6.87-10.66,0-16.27-8.4-16.27-17.52,0-11.09,7.54-17.52,16.27-17.52,6.58,0,11.19,2.69,14.12,6.77l-4.76,3.78a11.53,11.53,0,0,0-9.09-4.49c-6,0-9.58,4.73-9.58,11.46s3.62,11.43,9.32,11.43a10.62,10.62,0,0,0,7.25-2.53V21.1h-6V15.6Z"/><path d="M206.25,12.76a24.13,24.13,0,0,1,11.21-2.83c6.6,0,9.07,3.7,9.07,8.26V34.56h-5.73a8,8,0,0,1-.66-2.4,8.89,8.89,0,0,1-7,3.22c-5.71,0-8.79-4.08-8.79-8.4,0-4.08,2.46-8.26,8.79-8.26a20.58,20.58,0,0,1,7,1.29v-.48c0-3.68-1.7-4.62-4.08-4.62a14.24,14.24,0,0,0-7.48,2.28ZM220.13,24.1a14.53,14.53,0,0,0-5.55-1.28A3.41,3.41,0,0,0,211,26.5c0,2.67,1.33,3.9,3.61,3.9a8.37,8.37,0,0,0,5.55-2.49Z"/><path d="M232.53,34.56V0h6.52V34.56Z"/><path d="M245.3,34.56V0h6.52V34.56Z"/><path d="M280.72,22.71c0,7.49-4.33,12.72-12,12.72s-12.06-5.23-12.06-12.72c0-8.21,5.14-12.67,12.06-12.67C276.39,10,280.72,15.22,280.72,22.71Zm-17.44,0c0,4.15,1.69,7.46,5.43,7.46s5.38-3.3,5.38-7.46-1.69-7.34-5.38-7.34S263.28,18.55,263.28,22.71Z"/></g></g></svg>
